<mxfile host="app.diagrams.net" modified="2021-10-23T14:50:05.597Z" agent="5.0 (Windows NT 10.0; Win64; x64) AppleWebKit/537.36 (KHTML, like Gecko) Chrome/94.0.4606.81 Safari/537.36" etag="DHchZ8I8OZARjcF4lk_6" version="15.5.8" type="github">
  <diagram id="eSIqmUlAaXaO-JVcLsGD" name="Page-1">
    <mxGraphModel dx="1747" dy="764" grid="1" gridSize="10" guides="1" tooltips="1" connect="1" arrows="1" fold="1" page="1" pageScale="1" pageWidth="827" pageHeight="1169" math="0" shadow="0">
      <root>
        <mxCell id="0" />
        <mxCell id="1" parent="0" />
        <mxCell id="AnfG-cZYh2D78Fa8WE18-1" value="&lt;font style=&quot;font-size: 18px&quot;&gt;merchant&lt;/font&gt;" style="rounded=0;whiteSpace=wrap;html=1;strokeWidth=2;fontSize=18;" vertex="1" parent="1">
          <mxGeometry x="240" y="210" width="90" height="40" as="geometry" />
        </mxCell>
        <mxCell id="AnfG-cZYh2D78Fa8WE18-2" style="edgeStyle=none;rounded=0;orthogonalLoop=1;jettySize=auto;html=1;exitX=1;exitY=1;exitDx=0;exitDy=0;entryX=0.25;entryY=0;entryDx=0;entryDy=0;fontFamily=Helvetica;fontSize=18;endArrow=none;endFill=0;" edge="1" parent="1" source="AnfG-cZYh2D78Fa8WE18-3" target="AnfG-cZYh2D78Fa8WE18-1">
          <mxGeometry relative="1" as="geometry" />
        </mxCell>
        <mxCell id="AnfG-cZYh2D78Fa8WE18-3" value="&lt;div class=&quot;database-node-click-target&quot; style=&quot;align-items: center; box-sizing: border-box; cursor: pointer; display: flex; min-height: 32px; padding: 0px 16px 0px 12px; position: relative; font-size: 18px;&quot;&gt;&lt;div class=&quot;database-key-value&quot; style=&quot;align-items: flex-start; display: flex; justify-content: flex-start; padding: 6px 0px; font-size: 18px;&quot;&gt;&lt;span class=&quot;database-key&quot; style=&quot;color: rgba(0, 0, 0, 0.54); display: inline-block; margin-right: 8px; font-size: 18px;&quot;&gt;&lt;font style=&quot;font-size: 18px;&quot;&gt;kycInfo&lt;/font&gt;&lt;/span&gt;&lt;/div&gt;&lt;/div&gt;" style="ellipse;whiteSpace=wrap;html=1;fontSize=18;strokeWidth=2;" vertex="1" parent="1">
          <mxGeometry x="140" y="100" width="100" height="60" as="geometry" />
        </mxCell>
        <mxCell id="AnfG-cZYh2D78Fa8WE18-6" style="edgeStyle=none;rounded=0;orthogonalLoop=1;jettySize=auto;html=1;exitX=1;exitY=1;exitDx=0;exitDy=0;entryX=0;entryY=0;entryDx=0;entryDy=0;fontFamily=Helvetica;fontSize=18;endArrow=none;endFill=0;" edge="1" parent="1" source="AnfG-cZYh2D78Fa8WE18-7" target="AnfG-cZYh2D78Fa8WE18-3">
          <mxGeometry relative="1" as="geometry" />
        </mxCell>
        <mxCell id="AnfG-cZYh2D78Fa8WE18-7" value="&lt;div class=&quot;database-node-click-target&quot; style=&quot;align-items: center ; box-sizing: border-box ; cursor: pointer ; display: flex ; min-height: 32px ; padding: 0px 16px 0px 12px ; position: relative ; font-size: 18px&quot;&gt;&lt;div class=&quot;database-key-value&quot; style=&quot;align-items: flex-start ; display: flex ; justify-content: flex-start ; padding: 6px 0px ; font-size: 18px&quot;&gt;&lt;span class=&quot;database-key&quot; style=&quot;color: rgba(0 , 0 , 0 , 0.54) ; display: inline-block ; margin-right: 8px ; font-size: 18px&quot;&gt;&lt;font style=&quot;font-size: 18px&quot;&gt;imagefront&lt;/font&gt;&lt;/span&gt;&lt;/div&gt;&lt;/div&gt;" style="ellipse;whiteSpace=wrap;html=1;fontSize=18;strokeWidth=2;" vertex="1" parent="1">
          <mxGeometry x="30" y="20" width="100" height="60" as="geometry" />
        </mxCell>
        <mxCell id="AnfG-cZYh2D78Fa8WE18-8" style="edgeStyle=none;rounded=0;orthogonalLoop=1;jettySize=auto;html=1;exitX=1;exitY=0.5;exitDx=0;exitDy=0;fontFamily=Helvetica;fontSize=18;endArrow=none;endFill=0;" edge="1" parent="1" source="AnfG-cZYh2D78Fa8WE18-9" target="AnfG-cZYh2D78Fa8WE18-3">
          <mxGeometry relative="1" as="geometry" />
        </mxCell>
        <mxCell id="AnfG-cZYh2D78Fa8WE18-9" value="&lt;div class=&quot;database-node-click-target&quot; style=&quot;align-items: center ; box-sizing: border-box ; cursor: pointer ; display: flex ; min-height: 32px ; padding: 0px 16px 0px 12px ; position: relative ; font-size: 18px&quot;&gt;&lt;div class=&quot;database-key-value&quot; style=&quot;align-items: flex-start ; display: flex ; justify-content: flex-start ; padding: 6px 0px ; font-size: 18px&quot;&gt;&lt;span class=&quot;database-key&quot; style=&quot;color: rgba(0 , 0 , 0 , 0.54) ; display: inline-block ; margin-right: 8px ; font-size: 18px&quot;&gt;&lt;font style=&quot;font-size: 18px&quot;&gt;masothue&lt;/font&gt;&lt;/span&gt;&lt;/div&gt;&lt;/div&gt;" style="ellipse;whiteSpace=wrap;html=1;fontSize=18;strokeWidth=2;" vertex="1" parent="1">
          <mxGeometry x="-10" y="90" width="100" height="60" as="geometry" />
        </mxCell>
        <mxCell id="AnfG-cZYh2D78Fa8WE18-10" style="edgeStyle=none;rounded=0;orthogonalLoop=1;jettySize=auto;html=1;exitX=1;exitY=0;exitDx=0;exitDy=0;fontFamily=Helvetica;fontSize=18;endArrow=none;endFill=0;" edge="1" parent="1" source="AnfG-cZYh2D78Fa8WE18-11">
          <mxGeometry relative="1" as="geometry">
            <mxPoint x="280" y="250" as="targetPoint" />
          </mxGeometry>
        </mxCell>
        <mxCell id="AnfG-cZYh2D78Fa8WE18-11" value="&lt;div class=&quot;database-node-click-target&quot; style=&quot;align-items: center; box-sizing: border-box; cursor: pointer; display: flex; min-height: 32px; padding: 0px 16px 0px 12px; position: relative; font-size: 18px;&quot;&gt;&lt;div class=&quot;database-key-value&quot; style=&quot;align-items: flex-start; display: flex; justify-content: flex-start; padding: 6px 0px; font-size: 18px;&quot;&gt;&lt;span class=&quot;database-key&quot; style=&quot;color: rgba(0, 0, 0, 0.54); display: inline-block; margin-right: 8px; font-size: 18px;&quot;&gt;&lt;span style=&quot;font-size: 18px;&quot;&gt;name&lt;/span&gt;&lt;/span&gt;&lt;/div&gt;&lt;/div&gt;" style="ellipse;whiteSpace=wrap;html=1;fontSize=18;strokeWidth=2;" vertex="1" parent="1">
          <mxGeometry x="10" y="310" width="100" height="60" as="geometry" />
        </mxCell>
        <mxCell id="AnfG-cZYh2D78Fa8WE18-12" style="edgeStyle=none;rounded=0;orthogonalLoop=1;jettySize=auto;html=1;exitX=0.5;exitY=0;exitDx=0;exitDy=0;entryX=0.5;entryY=1;entryDx=0;entryDy=0;fontFamily=Helvetica;fontSize=18;endArrow=none;endFill=0;" edge="1" parent="1" source="AnfG-cZYh2D78Fa8WE18-13" target="AnfG-cZYh2D78Fa8WE18-1">
          <mxGeometry relative="1" as="geometry" />
        </mxCell>
        <mxCell id="AnfG-cZYh2D78Fa8WE18-13" value="&lt;div class=&quot;database-node-click-target&quot; style=&quot;align-items: center ; box-sizing: border-box ; cursor: pointer ; display: flex ; min-height: 32px ; padding: 0px 16px 0px 12px ; position: relative ; font-size: 18px&quot;&gt;&lt;div class=&quot;database-key-value&quot; style=&quot;align-items: flex-start ; display: flex ; justify-content: flex-start ; padding: 6px 0px ; font-size: 18px&quot;&gt;&lt;span class=&quot;database-key&quot; style=&quot;color: rgba(0 , 0 , 0 , 0.54) ; display: inline-block ; margin-right: 8px ; font-size: 18px&quot;&gt;&lt;span style=&quot;font-size: 18px&quot;&gt;sdt&lt;/span&gt;&lt;/span&gt;&lt;/div&gt;&lt;/div&gt;" style="ellipse;whiteSpace=wrap;html=1;fontSize=18;strokeWidth=2;" vertex="1" parent="1">
          <mxGeometry x="90" y="370" width="100" height="60" as="geometry" />
        </mxCell>
        <mxCell id="AnfG-cZYh2D78Fa8WE18-14" style="edgeStyle=none;rounded=0;orthogonalLoop=1;jettySize=auto;html=1;exitX=0;exitY=0.5;exitDx=0;exitDy=0;entryX=1;entryY=0.5;entryDx=0;entryDy=0;fontFamily=Helvetica;fontSize=18;endArrow=none;endFill=0;" edge="1" parent="1" source="AnfG-cZYh2D78Fa8WE18-15" target="AnfG-cZYh2D78Fa8WE18-1">
          <mxGeometry relative="1" as="geometry" />
        </mxCell>
        <mxCell id="AnfG-cZYh2D78Fa8WE18-15" value="&lt;div class=&quot;database-node-click-target&quot; style=&quot;align-items: center ; box-sizing: border-box ; cursor: pointer ; display: flex ; min-height: 32px ; padding: 0px 16px 0px 12px ; position: relative ; font-size: 18px&quot;&gt;&lt;div class=&quot;database-key-value&quot; style=&quot;align-items: flex-start ; display: flex ; justify-content: flex-start ; padding: 6px 0px ; font-size: 18px&quot;&gt;&lt;span class=&quot;database-key&quot; style=&quot;color: rgba(0 , 0 , 0 , 0.54) ; display: inline-block ; margin-right: 8px ; font-size: 18px&quot;&gt;&lt;span style=&quot;font-size: 18px&quot;&gt;sukien&lt;/span&gt;&lt;/span&gt;&lt;/div&gt;&lt;/div&gt;" style="ellipse;whiteSpace=wrap;html=1;fontSize=18;strokeWidth=2;" vertex="1" parent="1">
          <mxGeometry x="400" y="310" width="140" height="60" as="geometry" />
        </mxCell>
        <mxCell id="AnfG-cZYh2D78Fa8WE18-16" style="edgeStyle=none;rounded=0;orthogonalLoop=1;jettySize=auto;html=1;exitX=0;exitY=0.5;exitDx=0;exitDy=0;fontFamily=Helvetica;fontSize=18;endArrow=none;endFill=0;" edge="1" parent="1" source="AnfG-cZYh2D78Fa8WE18-17">
          <mxGeometry relative="1" as="geometry">
            <mxPoint x="330" y="230" as="targetPoint" />
          </mxGeometry>
        </mxCell>
        <mxCell id="AnfG-cZYh2D78Fa8WE18-17" value="&lt;div class=&quot;database-node-click-target&quot; style=&quot;align-items: center ; box-sizing: border-box ; cursor: pointer ; display: flex ; min-height: 32px ; padding: 0px 16px 0px 12px ; position: relative ; font-size: 18px&quot;&gt;&lt;div class=&quot;database-key-value&quot; style=&quot;align-items: flex-start ; display: flex ; justify-content: flex-start ; padding: 6px 0px ; font-size: 18px&quot;&gt;&lt;span class=&quot;database-key&quot; style=&quot;color: rgba(0 , 0 , 0 , 0.54) ; display: inline-block ; margin-right: 8px ; font-size: 18px&quot;&gt;&lt;span style=&quot;font-size: 18px&quot;&gt;nhansu&lt;/span&gt;&lt;/span&gt;&lt;/div&gt;&lt;/div&gt;" style="ellipse;whiteSpace=wrap;html=1;fontSize=18;strokeWidth=2;" vertex="1" parent="1">
          <mxGeometry x="435" y="220" width="160" height="60" as="geometry" />
        </mxCell>
        <mxCell id="AnfG-cZYh2D78Fa8WE18-18" style="edgeStyle=none;rounded=0;orthogonalLoop=1;jettySize=auto;html=1;exitX=0;exitY=0.5;exitDx=0;exitDy=0;entryX=1;entryY=0.5;entryDx=0;entryDy=0;fontFamily=Helvetica;fontSize=18;endArrow=none;endFill=0;" edge="1" parent="1" source="AnfG-cZYh2D78Fa8WE18-19" target="AnfG-cZYh2D78Fa8WE18-1">
          <mxGeometry relative="1" as="geometry" />
        </mxCell>
        <mxCell id="AnfG-cZYh2D78Fa8WE18-19" value="&lt;div class=&quot;database-node-click-target&quot; style=&quot;align-items: center ; box-sizing: border-box ; cursor: pointer ; display: flex ; min-height: 32px ; padding: 0px 16px 0px 12px ; position: relative ; font-size: 18px&quot;&gt;&lt;div class=&quot;database-key-value&quot; style=&quot;align-items: flex-start ; display: flex ; justify-content: flex-start ; padding: 6px 0px ; font-size: 18px&quot;&gt;&lt;span class=&quot;database-key&quot; style=&quot;color: rgba(0 , 0 , 0 , 0.54) ; display: inline-block ; margin-right: 8px ; font-size: 18px&quot;&gt;&lt;span style=&quot;font-size: 18px&quot;&gt;chinhnhanh&lt;/span&gt;&lt;/span&gt;&lt;/div&gt;&lt;/div&gt;" style="ellipse;whiteSpace=wrap;html=1;fontSize=18;strokeWidth=2;" vertex="1" parent="1">
          <mxGeometry x="450" y="130" width="130" height="60" as="geometry" />
        </mxCell>
        <mxCell id="AnfG-cZYh2D78Fa8WE18-20" style="rounded=0;orthogonalLoop=1;jettySize=auto;html=1;exitX=0;exitY=1;exitDx=0;exitDy=0;entryX=1;entryY=0;entryDx=0;entryDy=0;fontFamily=Helvetica;fontSize=18;endArrow=none;endFill=0;" edge="1" parent="1" source="AnfG-cZYh2D78Fa8WE18-21" target="AnfG-cZYh2D78Fa8WE18-1">
          <mxGeometry relative="1" as="geometry" />
        </mxCell>
        <mxCell id="AnfG-cZYh2D78Fa8WE18-21" value="&lt;span style=&quot;color: rgb(37 , 37 , 37) ; font-size: 18px&quot;&gt;UID&lt;/span&gt;" style="ellipse;whiteSpace=wrap;html=1;fontSize=18;strokeWidth=2;" vertex="1" parent="1">
          <mxGeometry x="340" y="40" width="140" height="70" as="geometry" />
        </mxCell>
        <mxCell id="AnfG-cZYh2D78Fa8WE18-22" style="edgeStyle=none;rounded=0;orthogonalLoop=1;jettySize=auto;html=1;exitX=1;exitY=0.5;exitDx=0;exitDy=0;entryX=0;entryY=0.5;entryDx=0;entryDy=0;fontFamily=Helvetica;fontSize=18;endArrow=none;endFill=0;" edge="1" parent="1" source="AnfG-cZYh2D78Fa8WE18-23" target="AnfG-cZYh2D78Fa8WE18-1">
          <mxGeometry relative="1" as="geometry" />
        </mxCell>
        <mxCell id="AnfG-cZYh2D78Fa8WE18-23" value="&lt;font color=&quot;#252525&quot;&gt;imageProfile&lt;/font&gt;" style="ellipse;whiteSpace=wrap;html=1;fontSize=18;strokeWidth=2;" vertex="1" parent="1">
          <mxGeometry x="-40" y="210" width="140" height="70" as="geometry" />
        </mxCell>
        <mxCell id="AnfG-cZYh2D78Fa8WE18-28" style="edgeStyle=none;rounded=0;orthogonalLoop=1;jettySize=auto;html=1;exitX=0.5;exitY=0;exitDx=0;exitDy=0;entryX=0.5;entryY=1;entryDx=0;entryDy=0;fontFamily=Helvetica;fontSize=18;endArrow=none;endFill=0;" edge="1" parent="1" source="AnfG-cZYh2D78Fa8WE18-31" target="AnfG-cZYh2D78Fa8WE18-1">
          <mxGeometry relative="1" as="geometry" />
        </mxCell>
        <mxCell id="AnfG-cZYh2D78Fa8WE18-29" style="edgeStyle=none;rounded=0;orthogonalLoop=1;jettySize=auto;html=1;exitX=0.5;exitY=1;exitDx=0;exitDy=0;entryX=1;entryY=0;entryDx=0;entryDy=0;fontFamily=Helvetica;fontSize=18;endArrow=none;endFill=0;" edge="1" parent="1" source="AnfG-cZYh2D78Fa8WE18-31" target="AnfG-cZYh2D78Fa8WE18-32">
          <mxGeometry relative="1" as="geometry" />
        </mxCell>
        <mxCell id="AnfG-cZYh2D78Fa8WE18-30" style="edgeStyle=none;rounded=0;orthogonalLoop=1;jettySize=auto;html=1;exitX=0.5;exitY=1;exitDx=0;exitDy=0;entryX=0;entryY=0;entryDx=0;entryDy=0;fontFamily=Helvetica;fontSize=18;endArrow=none;endFill=0;" edge="1" parent="1" source="AnfG-cZYh2D78Fa8WE18-31" target="AnfG-cZYh2D78Fa8WE18-33">
          <mxGeometry relative="1" as="geometry" />
        </mxCell>
        <mxCell id="AnfG-cZYh2D78Fa8WE18-31" value="&lt;font color=&quot;#252525&quot;&gt;nguoidaidien&lt;/font&gt;" style="ellipse;whiteSpace=wrap;html=1;fontSize=18;strokeWidth=2;" vertex="1" parent="1">
          <mxGeometry x="230" y="380" width="160" height="70" as="geometry" />
        </mxCell>
        <mxCell id="AnfG-cZYh2D78Fa8WE18-32" value="&lt;div class=&quot;database-node-click-target&quot; style=&quot;align-items: center ; box-sizing: border-box ; cursor: pointer ; display: flex ; min-height: 32px ; padding: 0px 16px 0px 12px ; position: relative ; font-size: 18px&quot;&gt;&lt;div class=&quot;database-key-value&quot; style=&quot;align-items: flex-start ; display: flex ; justify-content: flex-start ; padding: 6px 0px ; font-size: 18px&quot;&gt;&lt;span class=&quot;database-key&quot; style=&quot;color: rgba(0 , 0 , 0 , 0.54) ; display: inline-block ; margin-right: 8px ; font-size: 18px&quot;&gt;fullname&lt;/span&gt;&lt;/div&gt;&lt;/div&gt;" style="ellipse;whiteSpace=wrap;html=1;fontSize=18;strokeWidth=2;" vertex="1" parent="1">
          <mxGeometry x="180" y="470" width="120" height="60" as="geometry" />
        </mxCell>
        <mxCell id="AnfG-cZYh2D78Fa8WE18-33" value="&lt;div class=&quot;database-node-click-target&quot; style=&quot;align-items: center ; box-sizing: border-box ; cursor: pointer ; display: flex ; min-height: 32px ; padding: 0px 16px 0px 12px ; position: relative ; font-size: 18px&quot;&gt;&lt;div class=&quot;database-key-value&quot; style=&quot;align-items: flex-start ; display: flex ; justify-content: flex-start ; padding: 6px 0px ; font-size: 18px&quot;&gt;&lt;span class=&quot;database-key&quot; style=&quot;color: rgba(0 , 0 , 0 , 0.54) ; display: inline-block ; margin-right: 8px ; font-size: 18px&quot;&gt;gioitinh&lt;/span&gt;&lt;/div&gt;&lt;/div&gt;" style="ellipse;whiteSpace=wrap;html=1;fontSize=18;strokeWidth=2;" vertex="1" parent="1">
          <mxGeometry x="340" y="470" width="100" height="60" as="geometry" />
        </mxCell>
      </root>
    </mxGraphModel>
  </diagram>
</mxfile>
